<svg id="Ebene_1" xmlns="http://www.w3.org/2000/svg" viewBox="0 0 256 256"><style>.st0,.st1{stroke-miterlimit:10}.st0{fill:none;stroke:red}.st1{stroke:url(#SVGID_1_)}</style><path d="M224 120h-8.8c.2-2.8.4-5.4.5-7.6.3-4.6-3.4-8.4-8-8.4H48.3c-4.6 0-8.2 3.9-8 8.4C42 142.1 53.1 240 128 240c42.4 0 64.4-31.4 75.7-64H216c.4 0 12.1-.1 16-8 3.9-8.1 8-24.1 8-32s-8.2-16-16-16zm-56.1 98.1c-11.1 9.2-24.5 13.9-39.9 13.9s-28.8-4.7-39.9-13.9c-9.5-7.9-17.6-19.4-24-34-11.7-26.6-14.9-56.6-15.7-72.1h159.4c-.9 15.5-4.1 45.6-15.7 72.2-6.5 14.5-14.6 26-24.2 33.9zm56.9-53.6c-1.3 2.6-6.6 3.5-8.8 3.5h-6.9l9.3-40h5.6c3.4 0 8 4.6 8 8 0 6.6-3.8 21.5-7.2 28.5z"/><path d="M194.7 120H61.3c-2.4 0-4.2 2.1-4 4.4 1.7 15 5.4 37 14 56.5 12.7 29 31.2 43.1 56.6 43.1s43.9-14.1 56.6-43.1c8.6-19.5 12.3-41.5 14-56.5.4-2.3-1.5-4.4-3.8-4.4zM116 86c0 .2 0 .5.1.7.1.5.1 1 .2 1.5.2.9.4 1.7.6 2.5.5 1.5 1 2.7 1.4 3.5.2.4.4.7.5.9.1.2.2.3.2.3.2.3.6.6 1 .5.5-.1.9-.6.8-1.2v-.1s-.1-.5-.2-1.3-.3-2-.5-3.4c-.1-.7-.2-1.4-.2-2.2v-1.1V85.7 85.4c.1-.6.3-1.1.7-1.7.4-.6 1-1.2 1.7-2.2.3-.5.7-1 1-1.7.1-.3.2-.6.3-1 .1-.3.2-.7.2-1 0-.2.1-.4.1-.5v-1.2c0-.5-.1-1-.2-1.5-.3-2-.7-3.7-1.1-5.1-.4-1.5-.9-2.6-1.2-3.5-.3-.8-.5-1.3-.5-1.3-.2-.4-.6-.6-1-.6-.6.1-.9.6-.9 1.1 0 0 .1.5.2 1.3s.2 2.1.4 3.5.3 3.1.4 4.8v1.3c0 .1-.1 1-.1 1.1-.1.2-.2.5-.3.8-.1.3-.3.6-.5.9-.5.6-1.2 1.4-1.9 2.4-.7 1.1-1.1 2.5-1.1 3.7v.8l-.1.2zM124 85.8v.2c0 .2 0 .5.1.7.1.5.1 1 .2 1.5.2.9.4 1.7.6 2.5.5 1.5 1 2.7 1.4 3.5.2.4.4.7.5.9.1.2.2.3.2.3.2.3.6.6 1 .5.5-.1.9-.6.8-1.2v-.1s-.1-.5-.2-1.3-.3-2-.5-3.4c-.1-.7-.2-1.4-.2-2.2v-1.1V85.7 85.4c.1-.6.3-1.1.7-1.7.4-.6 1-1.2 1.7-2.2.3-.5.7-1 1-1.7.1-.3.2-.6.3-1 .1-.3.2-.7.2-1 0-.2.1-.4.1-.5v-1.2c0-.5-.1-1-.2-1.5-.3-2-.7-3.7-1.1-5.1-.4-1.5-.9-2.6-1.2-3.5-.3-.8-.5-1.3-.5-1.3-.2-.4-.6-.6-1-.6-.6.1-.9.6-.9 1.1 0 0 .1.5.2 1.3s.2 2.1.4 3.5.3 3.1.4 4.8v1.3c0 .1-.1 1-.1 1.1-.1.2-.2.5-.3.8-.1.3-.3.6-.5.9-.5.6-1.2 1.4-1.9 2.4-.7 1.1-1.1 2.5-1.1 3.7v.5c-.1.2-.1.2-.1.3zM132 85.8v.2c0 .2 0 .5.1.7.1.5.1 1 .2 1.5.2.9.4 1.7.6 2.5.5 1.5 1 2.7 1.4 3.5.2.4.4.7.5.9.1.2.2.3.2.3.2.3.6.6 1 .5.5-.1.9-.6.8-1.2v-.1s-.1-.5-.2-1.3-.3-2-.5-3.4c-.1-.7-.2-1.4-.2-2.2v-1.1V85.7 85.4c.1-.6.3-1.1.7-1.7.4-.6 1-1.2 1.7-2.2.3-.5.7-1 1-1.7.1-.3.2-.6.3-1 .1-.3.2-.7.2-1 0-.2.1-.4.1-.5v-1.2c0-.5-.1-1-.2-1.5-.3-2-.7-3.7-1.1-5.1-.4-1.5-.9-2.6-1.2-3.5-.3-.8-.5-1.3-.5-1.3-.2-.4-.6-.6-1-.6-.6.1-.9.6-.9 1.1 0 0 .1.5.2 1.3s.2 2.1.4 3.5.3 3.1.4 4.8v1.3c0 .1-.1 1-.1 1.1-.1.2-.2.5-.3.8-.1.3-.3.6-.5.9-.5.6-1.2 1.4-1.9 2.4-.7 1.1-1.1 2.5-1.1 3.7v.5c-.1.2-.1.2-.1.3z"/></svg>