<svg width="0" height="0" style="position: absolute;" xmlns="http://www.w3.org/2000/svg" xmlns:xlink="http://www.w3.org/1999/xlink"><symbol viewBox="0 0 100 100" id="fi-graph-pie"><path d="M54.193 12.87c-.73 0-1.325.594-1.325 1.326 0 .068.03.127.04.193h-.04v31.437c0 .732.594 1.326 1.325 1.326H85.63v-.04c.066.01.125.04.194.04.73 0 1.325-.594 1.325-1.326-.19-18.12-14.837-32.768-32.957-32.957z"/><path d="M79.485 53.46c0-.732-.593-1.326-1.325-1.326h-28.9a1.326 1.326 0 0 1-1.324-1.326V22.015h-.04c.01-.066.04-.125.04-.193 0-.733-.594-1.326-1.326-1.326-.032 0-.058.016-.09.018v-.01c-.117 0-.234-.008-.352-.008-18.4 0-33.317 14.917-33.317 33.317S27.77 87.13 46.17 87.13s33.317-14.917 33.317-33.317c0-.106-.005-.21-.007-.318 0-.013.007-.023.007-.035z"/></symbol></svg>